<svg viewBox="0 0 20 20" fill="#EB9100" xmlns="http://www.w3.org/2000/svg">
<path fill-rule="evenodd" clip-rule="evenodd" d="M9.4457 19.4586C9.01019 20.1159 8.25217 20.1842 7.75262 19.6112L0.411438 11.1902C0.150032 10.8903 3.03179e-08 10.4563 0 10C-3.03179e-08 9.54369 0.150032 9.10969 0.411438 8.80984L7.75261 0.388802C8.25217 -0.184237 9.01019 -0.115924 9.4457 0.541387C9.88121 1.1987 9.82929 2.19609 9.32974 2.76913L4.40258 8.42106L18.8 8.42105C19.4627 8.42105 20 9.12797 20 10C20 10.872 19.4627 11.5789 18.8 11.5789L4.40258 11.5789L9.32974 17.2309C9.8293 17.8039 9.88122 18.8013 9.4457 19.4586Z" fill="#EB9100"/>
</svg>
