<svg width="27" height="19" viewBox="0 0 27 19" fill="none" xmlns="http://www.w3.org/2000/svg">
<path d="M0.651956 8.61769C0.616864 8.72407 0.596984 8.83213 0.591431 8.94133C0.596582 7.11886 0.601733 5.29655 0.606884 3.47408C0.612438 3.36488 0.632318 3.25673 0.66741 3.15044C1.17375 1.61983 4.63296 0.742146 10.1555 0.742065C15.9487 0.742065 20.3077 1.47644 23.1098 2.9264C23.2584 3.00326 23.4008 3.08125 23.5365 3.1598C23.8796 3.35827 24.1822 3.56118 24.4488 3.76546C24.4437 5.58793 24.4385 7.41024 24.4334 9.23271C24.1666 9.02851 23.8642 8.82552 23.5211 8.62705C23.3854 8.5485 23.243 8.47059 23.0943 8.39365C20.2923 6.94369 15.9333 6.20932 10.1401 6.20932C4.61751 6.20932 1.15829 7.087 0.651956 8.61769V8.61769Z" fill="#E56353"/>
<path d="M13.9192 6.97045C13.9123 6.99077 13.9091 7.01102 13.9091 7.03118L13.9245 1.56393C13.9246 1.54384 13.9278 1.5236 13.9347 1.5032C13.9926 1.33376 14.3013 1.19343 14.5971 1.21375L14.5816 6.68101C14.2858 6.66068 13.9771 6.80101 13.9192 6.97045Z" fill="#D5D6DB"/>
<path d="M6.46919 6.86439C5.69805 6.88673 4.93279 6.98302 4.21533 7.14891C4.22072 5.32644 4.22588 3.50413 4.23103 1.68166C4.94848 1.51585 5.71366 1.41955 6.48472 1.39721C6.91186 1.38487 7.33932 1.42197 7.76397 1.40665C8.01943 1.39689 8.33156 1.38762 8.51764 1.49528C8.56786 1.52431 8.60891 1.5619 8.63708 1.61028C8.65736 1.64561 8.66662 1.68198 8.66654 1.71843L8.65109 7.18568C8.65117 7.14923 8.64191 7.11286 8.62163 7.07754C8.59338 7.02915 8.55241 6.99157 8.50219 6.96253C8.3161 6.85487 8.00398 6.86422 7.74851 6.8739C7.32379 6.88914 6.89641 6.85205 6.46919 6.86439V6.86439Z" fill="#D5D6DB"/>
<path d="M13.1707 6.81862C12.8879 6.65506 12.4648 6.56804 12.0692 6.60925L12.0847 1.142C12.4803 1.10079 12.9034 1.18773 13.1861 1.35136C13.3222 1.43007 13.4258 1.52661 13.4781 1.635C13.5073 1.69516 13.5209 1.75637 13.5207 1.81734L13.5052 7.2846C13.5054 7.22363 13.4919 7.16242 13.4627 7.10225C13.4104 6.99378 13.3068 6.89733 13.1707 6.81862Z" fill="#D5D6DB"/>
<path d="M10.9833 7.33476C10.9816 7.35114 10.9806 7.36759 10.9806 7.38404L10.996 1.91679C10.9961 1.90033 10.997 1.88396 10.9988 1.86751C11.0369 1.52282 11.4987 1.2029 12.0847 1.14185L12.0692 6.6091C11.4833 6.67015 11.0215 6.99016 10.9833 7.33476V7.33476Z" fill="#D5D6DB"/>
<path d="M14.3642 2.25741L14.3488 7.72467C14.3491 7.61603 14.257 7.50272 14.1584 7.40474C14.0415 7.28812 13.9086 7.16223 13.9089 7.03134L13.9244 1.56409C13.924 1.69498 14.057 1.82087 14.1738 1.93749C14.2725 2.03547 14.3646 2.14878 14.3642 2.25741V2.25741Z" fill="#E56353"/>
<path d="M14.3488 7.72445C14.3487 7.74704 14.3447 7.76938 14.3359 7.79131C14.3411 5.96884 14.3462 4.14653 14.3514 2.32406C14.3602 2.30212 14.3642 2.27978 14.3643 2.2572C14.3597 3.89741 14.3534 6.08433 14.3488 7.72445Z" fill="#D5D6DB"/>
<path d="M13.9634 8.12672C13.9542 8.14511 13.9499 8.1635 13.9498 8.18164L13.9653 2.71439C13.9654 2.69625 13.9696 2.67786 13.9788 2.65947C14.0346 2.54818 14.2347 2.48277 14.3193 2.37809C14.3336 2.36043 14.3441 2.34245 14.3515 2.32422C14.3463 4.14669 14.3412 5.969 14.336 7.79147C14.3287 7.8097 14.3181 7.82776 14.3038 7.84534C14.2192 7.95002 14.0191 8.01551 13.9634 8.12672Z" fill="#D5D6DB"/>
<path d="M13.5207 1.81714L13.5052 7.28439C13.5036 7.87368 12.2188 8.44636 11.3958 7.97022C11.3657 7.9528 11.3361 7.93393 11.3072 7.9136C11.0965 7.76634 10.98 7.57521 10.9805 7.38407L10.9959 1.91682C10.9954 2.10795 11.1119 2.29901 11.3227 2.44627C11.3515 2.46659 11.381 2.48546 11.4112 2.50288C12.2342 2.97911 13.519 2.40643 13.5207 1.81714V1.81714Z" fill="#E56353"/>
<path d="M13.1862 1.35128C13.3223 1.42999 13.4259 1.52653 13.4782 1.63492C13.7898 2.27679 12.3194 3.02834 11.4114 2.50301C11.3813 2.48559 11.3517 2.46672 11.3229 2.44639C11.094 2.28639 10.9763 2.07485 10.999 1.86759C11.0371 1.5229 11.4989 1.20297 12.0849 1.14184C12.4804 1.10071 12.9034 1.18773 13.1862 1.35128Z" fill="#E56353"/>
<path d="M21.8058 8.41472C21.2841 8.11293 18.5392 6.95137 14.5817 6.68112L14.5971 1.21387C18.5546 1.48412 21.2996 2.64568 21.8212 2.94746C21.8665 2.97368 21.8951 2.99343 21.9063 3.00553C21.9279 3.02892 21.9379 3.05166 21.9378 3.07376L21.9223 8.54101C21.9224 8.51891 21.9123 8.49617 21.8909 8.47278C21.8797 8.46077 21.8512 8.44101 21.8058 8.41472V8.41472Z" fill="#D5D6DB"/>
<path d="M10.5498 8.13863C10.5543 6.52947 10.5589 4.92047 10.5634 3.31123C10.5634 3.31099 10.5634 3.31067 10.5635 3.31042C10.5589 4.91991 10.5543 6.52915 10.5498 8.13863V8.13863Z" fill="#D5D6DB"/>
<path d="M1.41121 8.61765C1.26368 8.82983 1.18827 9.06137 1.18762 9.29202L1.20308 3.82477C1.20372 3.59411 1.27913 3.36258 1.42667 3.15039C1.8592 2.52505 2.81248 2.06044 3.8633 1.7739C3.98428 1.74108 4.10694 1.71035 4.23097 1.68164C4.22581 3.50411 4.22066 5.32642 4.21527 7.14889C4.09132 7.17752 3.96874 7.20825 3.84785 7.24107C2.79702 7.52761 1.84375 7.9923 1.41121 8.61765Z" fill="#D5D6DB"/>
<path d="M8.6664 1.71851L8.65095 7.18576C8.65063 7.30625 8.54793 7.42794 8.40225 7.51609C8.21246 7.63246 7.95603 7.70295 7.70838 7.77134C7.42064 7.85134 7.13169 7.93062 6.84275 8.00981C6.46245 8.11449 6.08215 8.21926 5.70065 8.32466C4.94513 8.53265 4.17825 8.74427 3.55746 9.06928C2.95591 9.38421 2.501 9.8247 2.49963 10.2942L2.51509 4.82698C2.51646 4.35745 2.97136 3.91696 3.57292 3.60203C4.19371 3.27702 4.96058 3.0654 5.7161 2.85741C6.09761 2.752 6.4779 2.64724 6.8582 2.54256C7.14715 2.46329 7.43609 2.38401 7.72383 2.30409C7.97149 2.2357 8.228 2.16521 8.4177 2.04884C8.56338 1.96061 8.66608 1.83899 8.6664 1.71851V1.71851Z" fill="#E56353"/>
<path d="M6.79535 8.4998C6.01286 8.81538 5.22909 9.13023 4.44531 9.44507C4.45046 7.6226 4.45561 5.80029 4.46077 3.97782C5.24454 3.66297 6.02831 3.34812 6.8108 3.03255C6.81088 3.03255 6.81088 3.03247 6.81096 3.03247C6.80581 4.85494 6.80066 6.67725 6.79551 8.49972C6.79543 8.49972 6.79535 8.4998 6.79535 8.4998V8.4998Z" fill="#D5D6DB"/>
<path d="M4.44533 9.44516C4.08773 9.58936 3.69714 9.75993 3.69641 10.0325L3.71186 4.56526C3.71267 4.29267 4.10319 4.12218 4.46087 3.97791C4.45564 5.80046 4.45041 7.62269 4.44533 9.44516Z" fill="#D5D6DB"/>
<path d="M2.50093 10.3396C2.50004 10.3244 2.49956 10.3094 2.49964 10.2943L2.5151 4.82703C2.51502 4.84211 2.5155 4.85719 2.51638 4.87235C2.51131 6.69482 2.50608 8.51713 2.50093 10.3396Z" fill="#D5D6DB"/>
<path d="M2.50287 10.3834C2.50295 10.3685 2.50198 10.3536 2.50085 10.3394C2.50601 8.51697 2.51116 6.69466 2.51631 4.87219C2.51743 4.88639 2.51832 4.90123 2.51832 4.91615C2.51373 6.55635 2.50753 8.74319 2.50287 10.3834V10.3834Z" fill="#D5D6DB"/>
<path d="M2.51835 4.91623L2.50289 10.3835C2.50273 10.442 2.48744 10.5022 2.40679 10.5329C2.29806 10.5744 2.15246 10.5278 2.05193 10.4784C2.01032 10.4576 1.9704 10.4361 1.93184 10.4138C1.42969 10.1233 1.18654 9.70927 1.18775 9.29208L1.2032 3.82483C1.20199 4.24202 1.44514 4.65606 1.9473 4.94655C1.98585 4.96889 2.02585 4.99035 2.06738 5.01115C2.16791 5.06059 2.31351 5.10712 2.42225 5.06567C2.50289 5.03503 2.51818 4.97478 2.51835 4.91623V4.91623Z" fill="#E56353"/>
<path d="M9.13707 8.08901C8.1879 7.94433 7.47544 8.22644 6.79541 8.49983C6.80056 6.67736 6.80571 4.85505 6.81086 3.03258C7.49081 2.75918 8.20335 2.47708 9.15253 2.62176C9.14746 4.44383 9.14231 6.26566 9.13716 8.08772C9.14118 6.67534 9.1452 5.26313 9.14915 3.85075C9.15027 3.44106 9.15261 3.03145 9.15261 2.62176C9.52864 2.67934 9.86974 2.7908 10.1373 2.94556H10.1374C10.1354 3.15863 10.1361 3.37178 10.1355 3.58485C10.1311 5.19377 10.1264 6.80252 10.1219 8.41144C10.1271 6.58937 10.1322 4.76755 10.1374 2.94556C10.316 3.04887 10.4618 3.17153 10.5633 3.31033C10.5633 3.31033 10.5633 3.31033 10.5634 3.31041V3.31089V3.31105C10.5623 3.69211 10.5612 4.07309 10.5602 4.45415C10.559 4.86457 10.5578 5.27498 10.5567 5.6854C10.5538 6.71599 10.5509 7.74658 10.548 8.77718C10.5531 6.95487 10.5583 5.13272 10.5635 3.31041C10.6938 3.48816 10.7469 3.67389 10.7464 3.86276L10.7309 9.33002C10.7315 9.14114 10.6783 8.95541 10.548 8.77758C10.4464 8.63879 10.3006 8.51612 10.122 8.41281C9.85429 8.25797 9.51311 8.14651 9.13707 8.08901Z" fill="#D5D6DB"/>
<path d="M10.7464 3.86267L10.7309 9.32992C10.7308 9.38985 10.7252 9.45009 10.715 9.51057C10.6945 9.63396 10.6842 9.75768 10.6838 9.88131L10.6993 4.41406C10.6996 4.29043 10.7099 4.16663 10.7304 4.04332C10.7407 3.98292 10.7462 3.92259 10.7464 3.86267V3.86267Z" fill="#E56353"/>
<path d="M10.8955 10.8805C10.7554 10.5535 10.6828 10.2176 10.6837 9.88131L10.6992 4.41406C10.6982 4.75036 10.7708 5.08626 10.9109 5.4132V5.41328C10.9059 7.23576 10.9006 9.05807 10.8955 10.8805C10.8955 10.8805 10.8955 10.8805 10.8955 10.8805Z" fill="#D5D6DB"/>
<path d="M10.9989 11.2216C10.9795 11.106 10.9438 10.9925 10.8955 10.8806C10.9007 9.05811 10.9058 7.2358 10.911 5.41333C10.9592 5.52527 10.9949 5.63874 11.0144 5.75431C11.023 5.80762 11.0273 5.86157 11.0272 5.91552L11.0117 11.3828C11.0119 11.3288 11.0075 11.2749 10.9989 11.2216V11.2216Z" fill="#D5D6DB"/>
<path d="M11.0272 5.91542L11.0118 11.3827C11.0109 11.7027 10.8512 12.0262 10.4773 12.2577C9.85171 12.6438 8.77449 12.6743 7.9264 12.4737C7.14673 12.2896 6.51492 11.9489 5.91538 11.602C5.8637 11.5722 5.81235 11.5423 5.76108 11.5124C5.22183 11.2004 4.68386 10.8877 4.14589 10.5751C4.00013 10.4907 3.87425 10.3933 3.79344 10.2827C3.72551 10.1905 3.69605 10.1076 3.69629 10.0323L3.71174 4.56506C3.7115 4.64023 3.74096 4.72313 3.80889 4.81539C3.8897 4.92588 4.0155 5.02338 4.16134 5.10774C4.69931 5.42041 5.23728 5.73308 5.77654 6.04502C5.82773 6.07486 5.87916 6.10478 5.93083 6.1347C6.53037 6.48157 7.16227 6.82222 7.94186 7.00634C8.78994 7.20699 9.86717 7.17651 10.4927 6.79037C10.8666 6.55899 11.0262 6.23543 11.0272 5.91542Z" fill="#E56353"/>
<path d="M0.589849 9.00131L0.605302 3.53406C0.603209 4.28142 1.26279 5.07402 2.33447 5.69404C2.95856 6.0551 3.72245 6.35761 4.67082 6.58681L4.65537 12.0541C3.707 11.8249 2.9431 11.5223 2.31901 11.1613C1.24734 10.5413 0.587756 9.74875 0.589849 9.00131V9.00131Z" fill="#D5D6DB"/>
<path d="M0.591453 8.94125C0.590407 8.96125 0.589924 8.98125 0.589844 9.00133L0.605297 3.53408C0.605378 3.514 0.60586 3.494 0.606907 3.474C0.601756 5.29655 0.596605 7.11878 0.591453 8.94125Z" fill="#E56353"/>
<path d="M21.9378 3.07376L21.9223 8.54102C21.9215 8.83272 20.1529 9.0095 19.813 9.03788C19.2194 9.08732 18.5967 9.06627 18.0545 8.91643C17.7446 8.83135 17.4708 8.70626 17.1683 8.61102C16.5784 8.42488 15.8802 8.35722 15.2191 8.42125C14.9499 8.44674 14.677 8.49472 14.4088 8.46271C14.2929 8.44851 14.1794 8.41198 14.0943 8.36278C14.0071 8.3123 13.9496 8.24851 13.9498 8.18173L13.9653 2.71448C13.9651 2.78125 14.0226 2.84505 14.1098 2.89553C14.1948 2.94473 14.3082 2.98126 14.4242 2.99545C14.6925 3.02747 14.9653 2.97949 15.2345 2.954C15.8957 2.89005 16.5939 2.95763 17.1838 3.14376C17.4862 3.23901 17.76 3.36409 18.07 3.44918C18.6121 3.59894 19.2349 3.62007 19.8285 3.57063C20.1684 3.54224 21.9369 3.36546 21.9378 3.07376V3.07376Z" fill="#E56353"/>
<path d="M21.8212 2.9476C21.8665 2.97381 21.8951 2.99357 21.9063 3.00566C22.2126 3.33793 20.1941 3.54011 19.8284 3.57068C19.2348 3.62012 18.6121 3.59907 18.07 3.44922C17.76 3.36414 17.4862 3.23906 17.1837 3.14381C16.5938 2.95768 15.8956 2.89001 15.2345 2.95405C14.9653 2.97953 14.6924 3.02752 14.4242 2.9955C14.3083 2.98131 14.1948 2.94477 14.1097 2.89558C13.9988 2.83138 13.9359 2.74557 13.9788 2.6596C14.0345 2.54831 14.2346 2.48291 14.3192 2.37823C14.4337 2.23717 14.31 2.07281 14.1739 1.93757C14.0391 1.80305 13.8829 1.65619 13.9347 1.50344C13.9927 1.334 14.3014 1.19368 14.5971 1.214C18.5545 1.48425 21.2995 2.64581 21.8212 2.9476V2.9476Z" fill="#E56353"/>
<path d="M12.258 9.8757C12.1424 10.0578 12.0878 10.2491 12.0873 10.441L12.1027 4.97379C12.1033 4.78193 12.1579 4.59063 12.2734 4.40845C12.2689 6.04866 12.7176 8.30146 12.258 9.8757V9.8757Z" fill="#D5D6DB"/>
<path d="M25.7583 10.615C25.4663 10.1734 25.0436 9.6997 24.4335 9.23251C24.4386 7.41004 24.4438 5.58773 24.4489 3.76526C25.0591 4.23245 25.4817 4.70617 25.7737 5.14772C25.7687 6.97019 25.7634 8.7925 25.7583 10.615Z" fill="#E56353"/>
<path d="M16.2499 8.81612C14.7221 8.48458 12.8194 8.98992 12.2581 9.87559L12.2735 4.40834C12.8348 3.52267 14.7376 3.01725 16.2654 3.34887C17.038 3.51613 17.6928 3.86155 18.5014 3.95534C19.7375 4.09784 21.0378 3.61936 22.238 3.84405C22.5819 3.908 22.8858 4.02639 23.1428 4.1751C23.3302 4.28349 23.4927 4.40801 23.6276 4.53923C23.8287 4.73448 23.9773 4.94489 24.1055 5.16005C24.1003 6.98252 24.0952 8.80483 24.09 10.6273C23.9619 10.4121 23.8133 10.2018 23.6122 10.0065C23.4773 9.87527 23.3148 9.75075 23.1274 9.64236C22.8703 9.49364 22.5664 9.37525 22.2226 9.3113C21.0224 9.08662 19.7221 9.5651 18.4859 9.42259C17.6774 9.32872 17.0227 8.98331 16.2499 8.81612V8.81612Z" fill="#D5D6DB"/>
<path d="M8.51755 1.49529C8.56778 1.52432 8.60882 1.5619 8.63699 1.61029C8.72432 1.76223 8.60746 1.93385 8.41767 2.04877C8.22788 2.16514 7.97145 2.23563 7.7238 2.30402C7.43606 2.38402 7.14712 2.4633 6.85817 2.54249C6.47787 2.64717 6.09758 2.75193 5.71607 2.85734C4.96055 3.06533 4.19368 3.27695 3.57289 3.60196C2.95202 3.92697 2.48729 4.38585 2.51634 4.87232C2.52174 4.94216 2.52351 5.02716 2.42218 5.06571C2.31344 5.10716 2.16784 5.06063 2.06731 5.01119C2.0257 4.99039 1.98578 4.96885 1.94723 4.94659C1.16748 4.49553 1.01222 3.74632 1.42672 3.15041C1.85925 2.52507 2.81253 2.06046 3.86336 1.77392C4.684 1.55142 5.58029 1.42343 6.48471 1.39722C6.91185 1.38488 7.33932 1.4219 7.76388 1.40665C8.01934 1.39698 8.33147 1.3877 8.51755 1.49529V1.49529Z" fill="#E56353"/>
<path d="M24.0898 10.6272C24.0647 10.5355 24.0905 10.4053 24.0907 10.3102C24.0917 9.96356 24.0927 9.61694 24.0937 9.27031C24.095 8.81812 24.0963 8.36593 24.0976 7.91374C24.1001 6.99581 24.1028 6.07796 24.1054 5.16003C24.1819 5.28859 24.2511 5.41883 24.3198 5.54851C24.3401 5.5865 24.3604 5.62456 24.3804 5.66287C24.3753 7.48534 24.3701 9.30765 24.3649 11.1301C24.3449 11.0919 24.3246 11.0537 24.3043 11.0158C24.2356 10.8859 24.1664 10.7557 24.0898 10.6272V10.6272Z" fill="#D5D6DB"/>
<path d="M24.3649 11.13C24.357 11.098 24.3651 11.0531 24.3652 11.0202C24.366 10.738 24.3668 10.4558 24.3676 10.1736C24.3685 9.85477 24.3694 9.53598 24.3703 9.21718C24.3736 8.0323 24.377 6.84759 24.3804 5.66272C24.5209 5.93071 24.6504 6.20532 24.6885 6.48097C24.6833 8.30344 24.6782 10.1257 24.673 11.9482C24.6349 11.6726 24.5054 11.398 24.3649 11.13V11.13Z" fill="#D5D6DB"/>
<path d="M24.673 11.9484C24.6704 11.9103 24.6732 11.8593 24.6733 11.8211C24.6734 11.753 24.6737 11.6848 24.6738 11.6168C24.6739 11.5743 24.6741 11.5177 24.6742 11.4752C24.6743 11.4538 24.6744 11.4252 24.6745 11.4038C24.675 11.2225 24.6755 11.041 24.676 10.8596C24.6801 9.40007 24.6843 7.94076 24.6884 6.4812C24.6959 6.53515 24.6998 6.58911 24.6997 6.64314L24.6842 12.1104C24.6844 12.0563 24.6804 12.0023 24.673 11.9484V11.9484Z" fill="#D5D6DB"/>
<path d="M26.2586 11.6607C26.1647 11.3526 26.0101 10.9957 25.7583 10.6151C25.7635 8.79261 25.7686 6.9703 25.7738 5.14783C26.0255 5.52848 26.1801 5.88535 26.2741 6.19342C26.3208 6.34657 26.3578 6.52198 26.3821 6.71473C26.377 8.5372 26.3718 10.3595 26.3667 12.182C26.3424 11.9892 26.3054 11.8138 26.2586 11.6607Z" fill="#E56353"/>
<path d="M10.1374 2.94559C10.316 3.0489 10.4618 3.17156 10.5634 3.31036C10.7351 3.54448 10.7728 3.79247 10.7304 4.04336C10.6541 4.50217 10.7193 4.96613 10.911 5.41332C10.9592 5.52534 10.995 5.63873 11.0144 5.75438C11.0742 6.12375 10.9298 6.52005 10.4928 6.79054C9.86726 7.17668 8.79003 7.20716 7.94195 7.00651C7.16228 6.8224 6.53047 6.48174 5.93092 6.13487C5.87925 6.10504 5.8279 6.07512 5.77663 6.04519C5.23738 5.73325 4.69941 5.42058 4.16144 5.10791C4.01568 5.02355 3.8898 4.92613 3.80899 4.81556C3.49461 4.3887 4.00449 4.16183 4.46076 3.97788C5.24454 3.66303 6.02831 3.34818 6.8108 3.03261C7.49083 2.75921 8.20337 2.47703 9.15262 2.62179C9.52866 2.67937 9.86976 2.79083 10.1374 2.94559V2.94559Z" fill="#E56353"/>
<path d="M26.3667 12.182C26.3635 12.1292 26.367 12.0764 26.3672 12.0236C26.3673 11.9709 26.3675 11.9182 26.3677 11.8655C26.3725 10.1485 26.3774 8.43171 26.3822 6.71472C26.4038 6.88594 26.4154 7.07078 26.4148 7.26587L26.3994 12.7331C26.3999 12.538 26.3883 12.3532 26.3667 12.182V12.182Z" fill="#E56353"/>
<path d="M7.99098 8.60903L7.97553 14.0763C7.41333 13.5515 6.81234 13.1459 6.27132 12.8329C5.41172 12.3356 4.70312 12.0719 4.6554 12.054L4.67085 6.58679C4.71866 6.6047 5.42726 6.86833 6.28677 7.3656C6.8278 7.67868 7.42879 8.08433 7.99098 8.60903V8.60903Z" fill="#D5D6DB"/>
<path d="M24.6997 6.64287L24.6843 12.1101C24.684 12.1911 24.6746 12.2721 24.6538 12.3529C24.5791 12.6445 24.3151 12.9411 23.9014 13.1164C23.4209 13.3211 23.1983 13.284 22.911 13.1177C22.8411 13.0773 22.7675 13.0293 22.6854 12.9753C22.6185 12.9312 22.5492 12.8884 22.4776 12.8469C21.7108 12.4034 20.6789 12.1166 19.597 12.07C17.7537 11.9908 15.845 12.5638 14.1065 12.193C13.7128 12.1089 13.3619 11.9732 13.0675 11.8029C12.4537 11.4478 12.0859 10.9424 12.0873 10.4409L12.1027 4.97363C12.1013 5.47518 12.4692 5.9806 13.083 6.33569C13.3772 6.50593 13.7282 6.64166 14.122 6.7257C15.8605 7.09652 17.7691 6.52352 19.6125 6.60279C20.6944 6.64933 21.7262 6.93611 22.493 7.37967C22.5647 7.42112 22.634 7.46395 22.7008 7.50806C22.783 7.56209 22.8567 7.61008 22.9264 7.65048C23.2137 7.8167 23.4362 7.85388 23.9169 7.64911C24.3306 7.47387 24.5945 7.17716 24.6693 6.88562C24.69 6.80481 24.6995 6.72384 24.6997 6.64287V6.64287Z" fill="#E56353"/>
<path d="M23.1427 4.17515C23.3301 4.28354 23.4926 4.40806 23.6275 4.53927C23.9487 4.85121 24.1361 5.20171 24.3198 5.54857C24.5515 5.9827 24.7846 6.43642 24.6693 6.88579C24.5946 7.17741 24.3306 7.47403 23.9169 7.64928C23.4364 7.85404 23.2138 7.81686 22.9265 7.65065C22.8566 7.61025 22.783 7.56226 22.7009 7.50823C22.6341 7.46411 22.5647 7.42129 22.4931 7.37984C21.7263 6.93627 20.6944 6.64949 19.6125 6.60296C17.7692 6.52368 15.8605 7.09668 14.122 6.72586C13.7283 6.64183 13.3774 6.5061 13.083 6.33585C12.2345 5.84495 11.8559 5.06662 12.2735 4.40846C12.8348 3.52279 14.7376 3.01737 16.2654 3.34899C17.038 3.51626 17.6928 3.86159 18.5014 3.95546C19.7375 4.09797 21.0377 3.61949 22.238 3.84417C22.5818 3.90796 22.8857 4.02643 23.1427 4.17515V4.17515Z" fill="#E56353"/>
<path d="M23.615 14.0364C23.6084 14.0301 23.6015 14.0238 23.5946 14.0175C23.5998 12.1951 23.6049 10.3728 23.6101 8.55029C23.6171 8.5565 23.6239 8.56279 23.6305 8.56908C23.6254 10.3916 23.6202 12.2139 23.615 14.0364Z" fill="#D5D6DB"/>
<path d="M11.9842 12.4454C10.6889 12.4672 9.72362 13.2525 9.73658 14.0037L9.75203 8.53641C9.73907 7.78526 10.7043 6.99992 11.9997 6.97814C13.4767 6.95411 14.5378 7.83905 15.9735 8.04632C16.9565 8.18737 17.8685 7.95543 18.5767 7.57364C19.1038 7.29001 19.5746 7.02459 20.3389 7.26678L20.3235 12.734C19.5592 12.4919 19.0883 12.7573 18.5612 13.0409C17.853 13.4226 16.941 13.6546 15.958 13.5136C14.5224 13.3063 13.4612 12.4214 11.9842 12.4454V12.4454Z" fill="#D5D6DB"/>
<path d="M23.6151 14.0365C23.6203 12.214 23.6254 10.3917 23.6306 8.56921C23.6973 8.63244 23.7478 8.70002 23.7841 8.77075C23.779 10.5932 23.7738 12.4155 23.7687 14.238C23.7324 14.1673 23.6818 14.0997 23.6151 14.0365Z" fill="#D5D6DB"/>
<path d="M23.7778 14.2564C23.7749 14.2501 23.7718 14.244 23.7687 14.2379C23.7738 12.4154 23.779 10.5931 23.7841 8.77063C23.7873 8.77676 23.7903 8.78289 23.7932 8.7891C23.7881 10.6117 23.7828 12.4339 23.7778 14.2564Z" fill="#D5D6DB"/>
<path d="M22.2401 13.7862C21.6706 13.8862 21.3125 14.1395 21.0964 14.438C21.1016 12.6155 21.1067 10.7932 21.1119 8.97074C21.3279 8.67226 21.6861 8.41895 22.2555 8.31894C22.6925 8.24184 23.157 8.26902 23.4713 8.4508C23.5216 8.47991 23.568 8.5129 23.6099 8.55016C23.6099 8.55024 23.6099 8.55024 23.61 8.55032C23.6049 10.3728 23.5997 12.1951 23.5946 14.0176C23.5945 14.0175 23.5945 14.0175 23.5944 14.0174C23.5525 13.9802 23.5061 13.9472 23.4558 13.9181C23.1416 13.7364 22.677 13.7091 22.2401 13.7862Z" fill="#D5D6DB"/>
<path d="M21.0868 14.4515C21.0919 12.629 21.0971 10.8067 21.1022 8.98425C21.1055 8.97974 21.1087 8.97522 21.1119 8.9707C21.1068 10.7932 21.1016 12.6155 21.0964 14.438C21.0932 14.4425 21.0899 14.447 21.0868 14.4515Z" fill="#D5D6DB"/>
<path d="M23.7778 14.2563C23.7745 14.2416 23.7779 14.2211 23.778 14.206C23.7781 14.19 23.7781 14.1687 23.7781 14.1527C23.7782 14.1155 23.7784 14.0783 23.7785 14.0411C23.7787 13.9695 23.7789 13.8979 23.7791 13.8262C23.7838 12.1471 23.7886 10.4682 23.7933 8.78906C23.8277 8.86132 23.8478 8.93681 23.8554 9.01423C23.8502 10.8367 23.8451 12.659 23.8399 14.4815C23.8321 14.4041 23.8122 14.3286 23.7778 14.2563V14.2563Z" fill="#D5D6DB"/>
<path d="M23.843 14.5287C23.8424 14.5129 23.8414 14.4972 23.8398 14.4815C23.845 12.6591 23.8501 10.8368 23.8553 9.01428C23.8568 9.02993 23.8579 9.04565 23.8584 9.06146C23.8533 10.8839 23.8481 12.7062 23.843 14.5287Z" fill="#D5D6DB"/>
<path d="M23.8429 14.5286C23.8402 14.3587 23.8439 14.1888 23.8444 14.0189C23.8448 13.849 23.8453 13.6792 23.8458 13.5092C23.85 12.0265 23.8542 10.544 23.8584 9.06128C23.8587 9.0712 23.8589 9.0812 23.8589 9.09112L23.8434 14.5584C23.8434 14.5485 23.8432 14.5385 23.8429 14.5286V14.5286Z" fill="#D5D6DB"/>
<path d="M21.0869 14.4515C21.0227 14.5424 20.9715 14.6372 20.9313 14.7331C20.9364 12.9106 20.9417 11.0882 20.9468 9.26576C20.987 9.16995 21.0382 9.07518 21.1023 8.98438C21.0976 10.6693 21.0927 12.3541 21.088 14.039C21.0878 14.1077 21.0876 14.1764 21.0874 14.2451C21.0874 14.2532 21.0873 14.264 21.0873 14.2721C21.0873 14.2802 21.0873 14.291 21.0873 14.299C21.0872 14.3419 21.087 14.3849 21.0869 14.4278C21.0869 14.4349 21.0889 14.4448 21.0869 14.4515V14.4515Z" fill="#D5D6DB"/>
<path d="M20.8463 15.0005C20.8141 15.1458 20.7979 15.2922 20.7975 15.4386L20.8129 9.97137C20.8133 9.82492 20.8295 9.67846 20.8617 9.53329C20.8815 9.44482 20.9094 9.35482 20.9468 9.26562C20.9416 11.0881 20.9365 12.9105 20.9313 14.733C20.8939 14.8222 20.8661 14.9122 20.8463 15.0005V15.0005Z" fill="#D5D6DB"/>
<path d="M18.9395 15.8889L18.9549 10.4217C18.9563 9.94063 19.2023 9.46045 19.4467 8.99576C19.7454 8.42639 20.1318 7.84831 20.339 7.2666L20.3236 12.7339C20.1164 13.3156 19.73 13.8936 19.4312 14.463C19.1869 14.9277 18.9408 15.408 18.9395 15.8889Z" fill="#E56353"/>
<path d="M18.9775 16.2097C18.951 16.1029 18.9391 15.9959 18.9395 15.889L18.9549 10.4218C18.9546 10.5286 18.9664 10.6355 18.993 10.7424V10.7425C18.9878 12.565 18.9827 14.3873 18.9775 16.2097C18.9775 16.2097 18.9775 16.2097 18.9775 16.2097Z" fill="#D5D6DB"/>
<path d="M19.2285 17.1266C19.2294 16.8329 19.0517 16.5084 18.9775 16.2098C18.9827 14.3873 18.9878 12.565 18.993 10.7426C19.067 11.0412 19.2448 11.3656 19.2439 11.6594C19.2394 13.2996 19.2332 15.4864 19.2285 17.1266Z" fill="#D5D6DB"/>
<path d="M19.2439 11.6594L19.2285 17.1267C19.228 17.3057 19.1611 17.4734 18.9641 17.6169C18.5087 17.9491 17.634 17.9245 16.9206 17.8278C14.9239 17.5571 13.0628 16.9565 11.6109 16.1165C11.5376 16.0741 11.4652 16.0309 11.3939 15.9873C10.5001 15.4413 9.74832 14.7555 9.73657 14.0036L9.75203 8.53638C9.76378 9.28825 10.5156 9.97392 11.4094 10.5201C11.4806 10.5637 11.5531 10.6068 11.6264 10.6493C13.0782 11.4891 14.9393 12.0899 16.9361 12.3605C17.6495 12.4572 18.5241 12.482 18.9795 12.1496C19.1766 12.0062 19.2434 11.8385 19.2439 11.6594V11.6594Z" fill="#E56353"/>
<path d="M23.8589 9.09119L23.8434 14.5584C23.842 15.0443 23.3957 15.5915 22.9925 15.9218C22.6867 16.1717 21.7184 16.9129 21.2224 16.6259C21.144 16.5806 21.0773 16.5095 21.027 16.4068C20.874 16.0921 20.7966 15.7652 20.7975 15.4387L20.8129 9.97145C20.812 10.298 20.8894 10.6248 21.0425 10.9395C21.0928 11.0423 21.1594 11.1133 21.2378 11.1587C21.7339 11.4456 22.7022 10.7045 23.008 10.4545C23.411 10.1242 23.8575 9.57709 23.8589 9.09119Z" fill="#E56353"/>
<path d="M24.3763 11.3692L24.3608 16.8364C23.157 17.7693 21.4587 18.3119 19.3133 18.4478C18.9928 18.4682 18.6695 18.4784 18.3526 18.4777C15.3077 18.4777 12.8555 17.5315 11.101 16.5166C9.09008 15.3532 7.99579 14.0996 7.97559 14.0763L7.99104 8.60901C8.01124 8.63232 9.10553 9.88598 11.1165 11.0493C12.8709 12.0643 15.3232 13.0104 18.368 13.0104C18.685 13.0112 19.0082 13.001 19.3288 12.9806C21.4742 12.8446 23.1725 12.3022 24.3763 11.3692V11.3692Z" fill="#D5D6DB"/>
<path d="M26.4148 7.26575L26.3993 12.733C26.3958 13.9796 25.8977 15.6449 24.3608 16.8365L24.3763 11.3693C25.9132 10.1776 26.4112 8.51231 26.4148 7.26575V7.26575Z" fill="#D5D6DB"/>
<path d="M23.4714 8.45082C23.5217 8.47994 23.5681 8.51292 23.61 8.55018C24.2257 9.09915 23.5742 9.99063 23.008 10.4546C22.7022 10.7045 21.7339 11.4457 21.2379 11.1587C21.1595 11.1134 21.0929 11.0424 21.0426 10.9396C20.8207 10.4837 20.7579 10.0023 20.8618 9.53327C20.9742 9.03157 21.3445 8.47889 22.2556 8.31889C22.6925 8.24187 23.1571 8.26905 23.4714 8.45082Z" fill="#E56353"/>
<path d="M20.3391 7.26674C20.1319 7.84845 19.7455 8.42653 19.4467 8.9959C19.148 9.56382 18.8469 10.155 18.993 10.7425C19.1122 11.2231 19.4999 11.7707 18.9796 12.1495C18.5242 12.4818 17.6495 12.4571 16.9361 12.3604C14.9394 12.0898 13.0783 11.4891 11.6264 10.6492C11.5531 10.6068 11.4807 10.5636 11.4095 10.52C10.5157 9.97391 9.76383 9.28817 9.75208 8.53629C9.73904 7.78514 10.7044 6.99979 11.9997 6.97802C13.4767 6.95399 14.5379 7.83893 15.9735 8.0462C16.9566 8.18725 17.8685 7.95531 18.5767 7.57352C19.1039 7.29004 19.5748 7.02463 20.3391 7.26674V7.26674Z" fill="#E56353"/>
<path d="M24.3762 11.3693C23.1725 12.3022 21.4741 12.8447 19.3288 12.9807C19.0082 13.001 18.685 13.0113 18.368 13.0106C15.3232 13.0106 12.8709 12.0644 11.1165 11.0495C9.10551 9.88612 8.01122 8.63245 7.99102 8.60914C7.42883 8.08437 6.82784 7.6788 6.28681 7.36572C5.42722 6.86845 4.71862 6.60481 4.67089 6.58691C3.72252 6.35763 2.95862 6.05512 2.33453 5.69414C1.07694 4.96662 0.386769 4.00143 0.667505 3.15044C1.17384 1.61975 4.63306 0.742065 10.1555 0.742065C15.9487 0.742065 20.3077 1.47644 23.1098 2.9264C23.2584 3.00326 23.4008 3.08125 23.5366 3.1598C25.3413 4.2037 26.0236 5.37179 26.2741 6.19351C26.6276 7.35185 26.4245 9.78119 24.3762 11.3693V11.3693ZM12.2734 4.40838C11.8557 5.06654 12.2343 5.84487 13.0829 6.33577C13.3772 6.50602 13.7281 6.64175 14.1219 6.72578C15.8604 7.0966 17.769 6.5236 19.6124 6.60288C20.6943 6.64941 21.7261 6.93619 22.4929 7.37975C22.5646 7.42121 22.634 7.46403 22.7008 7.50815C22.7829 7.56218 22.8566 7.61016 22.9264 7.65057C23.2137 7.81678 23.4362 7.85396 23.9168 7.6492C24.3305 7.47395 24.5944 7.17725 24.6692 6.88571C24.7845 6.43634 24.5514 5.98262 24.3197 5.54849C24.1361 5.20163 23.9486 4.85113 23.6274 4.53919C23.4925 4.40798 23.3301 4.28346 23.1426 4.17507C22.8855 4.02635 22.5816 3.90796 22.2378 3.84401C21.0376 3.61932 19.7373 4.09781 18.5011 3.9553C17.6926 3.86151 17.0379 3.5161 16.2652 3.34883C14.7375 3.01737 12.8348 3.52271 12.2734 4.40838V4.40838ZM16.9362 12.3605C17.6496 12.4572 18.5242 12.4819 18.9796 12.1496C19.5 11.7707 19.1122 11.2232 18.993 10.7425C18.8468 10.155 19.148 9.56377 19.4467 8.99585C19.7455 8.42648 20.1318 7.8484 20.339 7.26669C19.5748 7.02458 19.1039 7.28999 18.5768 7.57355C17.8686 7.95525 16.9565 8.18728 15.9736 8.04623C14.5379 7.83896 13.4768 6.95402 11.9998 6.97805C10.7045 6.99982 9.73918 7.78517 9.75214 8.53632C9.76389 9.2882 10.5157 9.97386 11.4095 10.52C11.4807 10.5636 11.5531 10.6068 11.6265 10.6492C13.0783 11.4891 14.9394 12.0898 16.9362 12.3605V12.3605ZM7.94193 7.00652C8.78993 7.20717 9.86723 7.17668 10.4928 6.79054C10.9297 6.52005 11.0741 6.12375 11.0144 5.75439C10.9949 5.63874 10.9593 5.52535 10.911 5.41333C10.7193 4.96614 10.6541 4.50217 10.7304 4.04337C10.7729 3.79248 10.7351 3.54456 10.5634 3.31044C10.4618 3.17165 10.3159 3.04899 10.1373 2.94568C9.86973 2.79083 9.52863 2.67938 9.15252 2.62188C8.20326 2.4772 7.49072 2.7593 6.81069 3.03269C6.02821 3.34827 5.24443 3.66312 4.46066 3.97796C4.00438 4.16192 3.4945 4.38878 3.80888 4.81565C3.88969 4.92614 4.01549 5.02364 4.16133 5.108C4.6993 5.42067 5.23727 5.73334 5.77652 6.04528C5.82771 6.07512 5.87914 6.10504 5.93074 6.13496C6.53044 6.48174 7.16234 6.8224 7.94193 7.00652ZM14.5971 1.21401C14.3013 1.19369 13.9926 1.33402 13.9347 1.50346C13.8829 1.65612 14.0392 1.80306 14.1739 1.93758C14.31 2.07283 14.4337 2.23719 14.3192 2.37824C14.2346 2.48292 14.0345 2.54841 13.9787 2.65962C13.9359 2.74559 13.9988 2.8314 14.1097 2.89559C14.1947 2.94479 14.3081 2.98132 14.4241 2.99552C14.6924 3.02753 14.9652 2.97955 15.2345 2.95406C15.8956 2.89011 16.5938 2.95769 17.1837 3.14383C17.4861 3.23907 17.7599 3.36416 18.0699 3.44924C18.612 3.599 19.2348 3.62013 19.8284 3.57069C20.194 3.54013 22.2124 3.33795 21.9062 3.00568C21.8951 2.99358 21.8665 2.97382 21.8211 2.94761C21.2996 2.64583 18.5546 1.48426 14.5971 1.21401V1.21401ZM2.42226 5.06582C2.52352 5.02727 2.52183 4.94219 2.51643 4.87243C2.48738 4.38596 2.9521 3.92716 3.57297 3.60207C4.19376 3.27706 4.96064 3.06544 5.71616 2.85745C6.09766 2.75196 6.47796 2.64728 6.85826 2.5426C7.1472 2.46332 7.43615 2.38405 7.72389 2.30405C7.97154 2.23566 8.22805 2.16517 8.41776 2.0488C8.60755 1.93387 8.72433 1.76226 8.63708 1.61032C8.60883 1.56193 8.56787 1.52435 8.51764 1.49531C8.33156 1.38765 8.01943 1.397 7.76397 1.40668C7.33932 1.42192 6.91194 1.38491 6.48472 1.39725C5.5803 1.42346 4.68393 1.55144 3.86337 1.77395C2.81262 2.06049 1.85926 2.5251 1.42681 3.15044C1.01231 3.74634 1.16757 4.49548 1.94732 4.94662C1.98587 4.96896 2.02587 4.99041 2.0674 5.01122C2.16793 5.06066 2.31353 5.10719 2.42226 5.06582V5.06582ZM21.2378 11.1587C21.7339 11.4457 22.7021 10.7045 23.008 10.4546C23.5742 9.99063 24.2256 9.09916 23.6099 8.55019C23.5681 8.51301 23.5216 8.47995 23.4713 8.45083C23.1571 8.26905 22.6925 8.24188 22.2556 8.31897C21.3444 8.47898 20.9742 9.03158 20.8617 9.53328C20.7579 10.0023 20.8207 10.4836 21.0425 10.9396C21.0928 11.0424 21.1594 11.1133 21.2378 11.1587ZM12.0847 1.142C11.4988 1.20305 11.0369 1.52306 10.9988 1.86766C10.9762 2.07493 11.0938 2.28646 11.3227 2.44647C11.3516 2.46679 11.3811 2.48566 11.4113 2.50308C12.3193 3.02842 13.7897 2.27687 13.4781 1.63499C13.4258 1.52652 13.3222 1.43007 13.1861 1.35136C12.9034 1.1878 12.4804 1.10079 12.0847 1.142" fill="white"/>
<path d="M19.4027 13.1275C15.6732 13.3639 12.7355 12.2753 10.7082 11.1025C8.59504 9.88005 7.52739 8.63179 7.47122 8.56606C6.96576 8.09733 6.39447 7.71232 5.88073 7.41522C5.04673 6.93279 4.3989 6.69455 4.36477 6.68205C3.45359 6.46761 2.62104 6.13938 1.93393 5.74178C0.767683 5.06709 0.0131251 4.38755 0.0154592 3.5343L5.83935e-06 9.00147C-0.00240875 9.85472 0.744181 10.7285 1.91043 11.4032C2.59762 11.8007 3.43017 12.1291 4.34127 12.3435C4.3754 12.356 5.02323 12.5942 5.85723 13.0767C6.37089 13.3739 6.94218 13.7589 7.44771 14.2275C7.50389 14.2932 8.57154 15.5415 10.6847 16.764C12.712 17.9367 15.6497 19.0253 19.3792 18.7889C25.6451 18.3905 26.9788 14.8592 26.9848 12.7342L27.0003 7.26691C26.9942 9.39197 25.6686 12.7291 19.4027 13.1275V13.1275Z" fill="#D15241"/>
<path d="M26.8554 6.13372C27.3404 7.72329 27.0121 12.8373 19.3949 13.3217C15.6655 13.5581 12.7277 12.4695 10.7005 11.2968C8.58734 10.0743 7.51969 8.82606 7.46351 8.76033C6.95798 8.29161 6.38677 7.9066 5.87302 7.60949C5.03902 7.12706 4.39119 6.88883 4.35707 6.87633C3.44588 6.66188 2.61333 6.33357 1.92614 5.93606C-1.43214 3.99326 -1.31045 0.399449 10.1539 0.398804C17.5149 0.398804 21.6352 1.57634 23.9524 2.91702C25.983 4.09181 26.6289 5.39201 26.8554 6.13372V6.13372ZM19.3291 12.9806C21.4745 12.8446 23.1728 12.3021 24.3765 11.3692C26.4248 9.78109 26.6279 7.35166 26.2743 6.19332C26.0239 5.37161 25.3415 4.20359 23.5368 3.15961C23.4011 3.08106 23.2588 3.00315 23.1101 2.92621C20.3081 1.47625 15.9491 0.741878 10.1559 0.741878C4.63329 0.741878 1.17408 1.61956 0.667741 3.15025C0.387005 4.00125 1.07717 4.96643 2.33477 5.69395C2.95886 6.05501 3.72275 6.35752 4.57695 6.55841C4.71885 6.60463 5.42745 6.86826 6.28704 7.36553C6.82807 7.67853 7.42906 8.08418 7.96228 8.57912C8.01146 8.63226 9.10583 9.88593 11.1167 11.0493C12.8711 12.0642 15.3234 13.0104 18.3683 13.0104C18.6854 13.0112 19.0085 13.001 19.3291 12.9806" fill="#E56353"/>
</svg>
