<svg width="22" height="23" viewBox="0 0 22 23" fill="none" xmlns="http://www.w3.org/2000/svg">
<path d="M17.8922 7.16373C18.2081 7.07176 18.4806 6.86956 18.6601 6.59383C18.8397 6.3181 18.9144 5.98713 18.8707 5.66101C18.827 5.33489 18.6679 5.03524 18.4221 4.81647C18.1763 4.59771 17.8602 4.47432 17.5313 4.46873C17.5258 4.14162 17.4039 3.82717 17.1875 3.58185C17.3729 3.47422 17.5306 3.32473 17.6479 3.14531C17.7653 2.96589 17.839 2.76152 17.8633 2.54851C17.8876 2.33551 17.8618 2.11978 17.7878 1.91854C17.7139 1.71731 17.594 1.53615 17.4375 1.38953C17.2811 1.24291 17.0926 1.1349 16.887 1.07412C16.6814 1.01334 16.4645 1.00147 16.2535 1.03947C16.0425 1.07746 15.8433 1.16427 15.6719 1.29295C15.5004 1.42164 15.3614 1.58863 15.2659 1.7806C15.1073 1.74164 14.9446 1.72088 14.7813 1.71873C14.5469 1.71949 14.3144 1.76017 14.0938 1.83904C13.8104 1.73776 13.5082 1.69973 13.2086 1.72761C12.9089 1.75549 12.619 1.8486 12.3592 2.00042C12.0993 2.15224 11.8759 2.35909 11.7044 2.60644C11.533 2.85379 11.4178 3.13566 11.3669 3.43227C11.316 3.72887 11.3306 4.03303 11.4097 4.32339C11.4888 4.61375 11.6305 4.88329 11.8248 5.11307C12.0191 5.34286 12.2614 5.52734 12.5346 5.65356C12.8078 5.77979 13.1053 5.84469 13.4063 5.84373C13.6148 5.84282 13.8221 5.81155 14.0216 5.75092C13.8293 5.94253 13.6767 6.17022 13.5726 6.42092C13.4685 6.67162 13.4149 6.9404 13.4149 7.21185C13.4149 7.48331 13.4685 7.75209 13.5726 8.00279C13.6767 8.25349 13.8293 8.48118 14.0216 8.67279C13.6248 8.91832 13.2971 9.26076 13.0692 9.66788C12.8412 10.075 12.7207 10.5334 12.7188 11C12.7202 11.4013 12.8081 11.7976 12.9766 12.1619C12.5897 12.6005 12.3758 13.1651 12.375 13.75C12.3751 13.9746 12.4076 14.198 12.4713 14.4134C12.0917 14.7651 11.794 15.1958 11.5991 15.6751C11.4043 16.1545 11.3171 16.6707 11.3438 17.1875C11.3438 18.9062 12.0313 20.2812 12.8906 20.2812C13.75 20.2812 12.7188 19.0953 13.4063 17.5312C13.6331 17.0156 14.4891 16.5584 14.6128 16.1562H14.7813C15.1442 16.1561 15.5025 16.0739 15.8292 15.9157C16.1559 15.7575 16.4426 15.5274 16.6677 15.2427C16.8929 14.958 17.0508 14.6261 17.1295 14.2717C17.2082 13.9174 17.2057 13.5498 17.1222 13.1965C17.4626 12.9404 17.7389 12.6086 17.9292 12.2274C18.1195 11.8462 18.2186 11.426 18.2188 11C18.2178 10.8363 18.2029 10.673 18.1741 10.5119C18.4249 10.2993 18.6213 10.0299 18.7469 9.72607C18.8725 9.42223 18.9237 9.09276 18.8961 8.76514C18.8685 8.43752 18.763 8.12124 18.5884 7.84267C18.4138 7.5641 18.1751 7.33132 17.8922 7.16373Z" fill="#A1D51C"/>
<path d="M16.8439 12.7188C16.844 12.4605 16.77 12.2076 16.6307 11.99C16.7704 11.6786 16.843 11.3413 16.8439 11C16.8425 10.6136 16.7481 10.2331 16.5686 9.89085C16.3891 9.54859 16.1298 9.25461 15.8126 9.03377C16.0994 8.59426 16.2079 8.06195 16.1159 7.54527C16.0239 7.02859 15.7384 6.5664 15.3176 6.25284C15.4749 5.85825 15.5049 5.42439 15.4036 5.0119C15.3171 4.65611 15.1374 4.32976 14.8831 4.06636C14.6288 3.80297 14.3089 3.61202 13.9564 3.51315C13.5422 3.39767 13.1024 3.41449 12.6982 3.56127C12.6982 3.52002 12.6982 3.47877 12.6982 3.43752C12.6974 3.19698 12.6335 2.96087 12.5128 2.75277C12.3922 2.54467 12.2191 2.37186 12.0107 2.25159C11.7009 2.53181 11.4834 2.89954 11.3872 3.30608C11.2909 3.71262 11.3204 4.13881 11.4717 4.52823C11.623 4.91766 11.889 5.25195 12.2344 5.48687C12.5799 5.72179 12.9886 5.84625 13.4064 5.84377C13.6149 5.84286 13.8222 5.81159 14.0217 5.75096C13.8294 5.94257 13.6768 6.17026 13.5727 6.42096C13.4686 6.67166 13.4151 6.94044 13.4151 7.2119C13.4151 7.48335 13.4686 7.75214 13.5727 8.00284C13.6768 8.25354 13.8294 8.48122 14.0217 8.67283C13.6249 8.91837 13.2972 9.2608 13.0693 9.66792C12.8414 10.075 12.7208 10.5335 12.7189 11C12.7203 11.4013 12.8082 11.7976 12.9767 12.1619C12.5898 12.6006 12.376 13.1651 12.3751 13.75C12.3753 13.9746 12.4077 14.1981 12.4714 14.4135C12.0918 14.7651 11.7941 15.1958 11.5993 15.6752C11.4044 16.1545 11.3173 16.6708 11.3439 17.1875C11.3437 17.4624 11.3632 17.737 11.4023 18.0091V17.9885C11.5502 17.2969 11.9588 16.6889 12.5432 16.2907C13.1277 15.8925 13.843 15.7348 14.5407 15.8503C14.7404 15.8858 14.9454 15.8768 15.1411 15.8237C15.3367 15.7707 15.5183 15.6751 15.6727 15.5437C15.8271 15.4123 15.9505 15.2484 16.0341 15.0637C16.1178 14.879 16.1595 14.6781 16.1564 14.4753V14.4375C16.1562 14.2668 16.14 14.0965 16.1082 13.9288C16.3291 13.8128 16.5142 13.6389 16.6438 13.4257C16.7734 13.2126 16.8425 12.9682 16.8439 12.7188Z" fill="#7AB92D"/>
<path d="M15.8125 12.0312C15.8111 11.6448 15.7167 11.2643 15.5372 10.9221C15.3577 10.5798 15.0984 10.2858 14.7812 10.065C15.068 9.62548 15.1764 9.09318 15.0845 8.5765C14.9925 8.05982 14.707 7.59763 14.2862 7.28406C14.4434 6.88947 14.4735 6.45562 14.3721 6.04313C14.2857 5.68734 14.106 5.36098 13.8517 5.09759C13.5974 4.83419 13.2775 4.64325 12.925 4.54438C12.5108 4.42889 12.0709 4.44572 11.6668 4.5925C11.6668 4.55125 11.6668 4.51 11.6668 4.46875C11.6668 4.10408 11.522 3.75434 11.2641 3.49648C11.0062 3.23862 10.6565 3.09375 10.2918 3.09375C10.292 2.73611 10.1528 2.39249 9.90379 2.13578C9.65478 1.87907 9.31555 1.72948 8.95807 1.71875C8.78789 1.7187 8.61945 1.75309 8.4629 1.81985C8.30635 1.8866 8.16492 1.98435 8.04714 2.10719C7.51432 2.65031 7.51432 3.06281 7.61057 3.4375H7.56245C7.16982 3.43773 6.78541 3.55003 6.4544 3.76119C6.12339 3.97235 5.85953 4.27361 5.69383 4.62956C5.52813 4.98551 5.46747 5.38137 5.51898 5.7706C5.5705 6.15984 5.73204 6.52628 5.98463 6.82688C5.52944 7.05545 5.14667 7.40596 4.879 7.83933C4.61133 8.27269 4.46929 8.77189 4.4687 9.28125C4.46982 9.54175 4.50684 9.80085 4.5787 10.0512C4.1856 10.1664 3.83571 10.3961 3.57362 10.7109C3.31153 11.0257 3.14912 11.4114 3.10708 11.8189C3.06505 12.2263 3.14529 12.6371 3.33759 12.9988C3.52988 13.3604 3.82552 13.6567 4.18682 13.8497C3.8162 14.5448 3.69557 15.3461 3.84513 16.1196C3.99468 16.893 4.40534 17.5916 5.00838 18.0984C5.47842 18.4688 5.90304 18.8934 6.27339 19.3634C6.64081 19.8612 7.11992 20.2657 7.67218 20.5445C8.22444 20.8233 8.83443 20.9686 9.45307 20.9688H9.77276C9.86607 20.958 9.95619 20.9283 10.0376 20.8814C10.1189 20.8344 10.1898 20.7714 10.2459 20.696C10.3019 20.6206 10.3419 20.5346 10.3634 20.4431C10.3849 20.3517 10.3875 20.2568 10.3709 20.1644C10.2935 19.7914 10.2935 19.4064 10.3709 19.0334C10.5187 18.3419 10.9273 17.7338 11.5118 17.3357C12.0962 16.9375 12.8116 16.7798 13.5093 16.8953C13.7089 16.9308 13.9139 16.9217 14.1096 16.8687C14.3053 16.8157 14.4869 16.7201 14.6413 16.5887C14.7957 16.4573 14.9191 16.2933 15.0027 16.1086C15.0863 15.9239 15.1281 15.723 15.125 15.5203V15.4688C15.1247 15.298 15.1086 15.1277 15.0768 14.96C15.2977 14.844 15.4828 14.6701 15.6124 14.457C15.742 14.2438 15.8111 13.9994 15.8125 13.75C15.8125 13.4917 15.7386 13.2388 15.5993 13.0213C15.739 12.7098 15.8116 12.3725 15.8125 12.0312Z" fill="#C4F236"/>
<path d="M10.3331 19.2809C9.67674 19.0049 9.10596 18.5587 8.67963 17.9884C8.33588 17.5072 8.21557 17.1084 7.75838 16.7234C7.37446 16.4011 7.06568 15.9987 6.85369 15.5444C6.6417 15.0902 6.53163 14.595 6.5312 14.0938C6.5312 13.5094 6.33526 12.9594 6.59307 12.4747C6.2373 12.2794 5.94705 11.9836 5.75864 11.6241C5.57023 11.2647 5.49205 10.8576 5.53389 10.454C5.57572 10.0503 5.73571 9.66797 5.99382 9.35481C6.25194 9.04164 6.5967 8.81159 6.98495 8.69344C6.91151 8.43751 6.87448 8.17251 6.87495 7.90625C6.87554 7.39689 7.01758 6.89769 7.28525 6.46433C7.55292 6.03096 7.93569 5.68045 8.39088 5.45187C8.14397 5.1594 7.98331 4.80398 7.92689 4.4254C7.87048 4.04682 7.92052 3.66 8.07143 3.30824C8.22234 2.95648 8.46815 2.65365 8.78137 2.43364C9.09459 2.21363 9.46285 2.08513 9.84495 2.0625C9.60501 1.85057 9.29866 1.729 8.9787 1.71875C8.80851 1.7187 8.64007 1.75309 8.48352 1.81985C8.32697 1.8866 8.18554 1.98435 8.06776 2.10719C7.51432 2.65031 7.51432 3.06281 7.61057 3.4375H7.56245C7.16982 3.43773 6.78541 3.55003 6.4544 3.76119C6.12339 3.97235 5.85953 4.27361 5.69383 4.62956C5.52813 4.98551 5.46747 5.38137 5.51898 5.7706C5.5705 6.15984 5.73204 6.52628 5.98463 6.82688C5.52944 7.05545 5.14667 7.40596 4.879 7.83933C4.61133 8.27269 4.46929 8.77189 4.4687 9.28125C4.46982 9.54175 4.50684 9.80085 4.5787 10.0512C4.1856 10.1664 3.83571 10.3961 3.57362 10.7109C3.31153 11.0257 3.14912 11.4114 3.10708 11.8189C3.06505 12.2263 3.14529 12.6371 3.33759 12.9988C3.52988 13.3604 3.82552 13.6567 4.18682 13.8497C3.8162 14.5448 3.69557 15.3461 3.84513 16.1196C3.99468 16.893 4.40534 17.5916 5.00838 18.0984C5.47842 18.4688 5.90303 18.8934 6.27338 19.3634C6.64081 19.8612 7.11992 20.2657 7.67218 20.5445C8.22443 20.8233 8.83442 20.9686 9.45307 20.9688H9.77276C9.86607 20.958 9.95619 20.9283 10.0376 20.8814C10.1189 20.8344 10.1898 20.7714 10.2459 20.696C10.3019 20.6206 10.3419 20.5346 10.3634 20.4431C10.3849 20.3517 10.3875 20.2568 10.3709 20.1644C10.31 19.8739 10.2973 19.5755 10.3331 19.2809Z" fill="#A1D51C"/>
<path d="M10.3125 13.0625L9.28125 14.7812L10.0375 11.3919C10.0844 11.1913 10.0701 10.9814 9.99662 10.789C9.92311 10.5966 9.79367 10.4307 9.625 10.3125L8.79656 13.6228C8.66219 14.1637 8.59409 14.7189 8.59375 15.2762V18.9062L9.24 16.4484C9.49424 15.3539 10.0136 14.3387 10.7525 13.4922L12.0312 12.0312C11.8559 11.9044 11.6393 11.8478 11.4243 11.8726C11.2092 11.8974 11.0113 12.0018 10.8694 12.1653C10.6477 12.4404 10.4607 12.7417 10.3125 13.0625Z" fill="#A1D51C"/>
<path d="M12.5537 8.70028C12.6686 8.35786 12.8041 8.02267 12.9593 7.69653C12.344 8.01966 11.7906 8.67966 11.4399 9.8381C11.139 10.7726 11.0417 11.7607 11.1546 12.7359C11.4221 12.5309 11.6436 12.2719 11.8047 11.9759C11.9658 11.6798 12.0628 11.3532 12.0896 11.0172C12.1404 10.2276 12.2965 9.44846 12.5537 8.70028Z" fill="#A1D51C"/>
<path d="M7.90625 7.87185V8.24997L8.44937 8.03341C8.80584 7.89058 9.11856 7.65665 9.35624 7.35502C9.59392 7.0534 9.74824 6.69465 9.80375 6.31466L9.86219 5.91248C9.73949 6.20432 9.55188 6.46435 9.31363 6.67283C9.07537 6.8813 8.79273 7.03272 8.48719 7.1156C8.32208 7.16273 8.1765 7.26168 8.0719 7.39784C7.9673 7.534 7.90923 7.70017 7.90625 7.87185Z" fill="#A1D51C"/>
<path d="M7.99902 13.3306C8.04714 14.5578 8.11589 16.2044 8.11589 16.2044C8.11589 16.2044 7.31152 13.9184 6.90245 12.2134C6.8664 12.0643 6.78151 11.9315 6.66129 11.8362C6.54107 11.7409 6.39243 11.6886 6.23901 11.6875L6.41776 12.8425C6.72042 14.8069 7.36991 16.7018 8.33589 18.4387L8.5937 18.9062L8.82402 15.0734C8.86513 14.4129 8.94432 13.7552 9.0612 13.1037L9.25371 12.0312C9.08511 12.0311 8.91822 12.065 8.76301 12.1308C8.60779 12.1967 8.46744 12.2931 8.35032 12.4144C8.23321 12.5357 8.14174 12.6793 8.08139 12.8367C8.02103 12.9942 7.99301 13.1621 7.99902 13.3306Z" fill="#A1D51C"/>
<path d="M13.4063 13.75C12.2731 13.7504 11.1654 14.0865 10.2231 14.7159C10.6696 13.922 11.2419 13.2057 11.9178 12.595L12.2616 12.2856C12.2981 12.2563 12.3283 12.2198 12.3502 12.1784C12.3721 12.137 12.3853 12.0915 12.389 12.0448C12.3927 11.9981 12.3868 11.9511 12.3717 11.9068C12.3566 11.8624 12.3326 11.8216 12.3012 11.7869C12.2697 11.7522 12.2315 11.7242 12.1889 11.7048C12.1462 11.6854 12.1001 11.6749 12.0532 11.6739C12.0064 11.673 11.9598 11.6816 11.9164 11.6993C11.8731 11.717 11.8338 11.7434 11.801 11.7769L11.4572 12.0863L11.3438 12.2031V11.4847C11.3436 10.8481 11.4873 10.2198 11.7641 9.64656C12.0408 9.07334 12.4436 8.57008 12.9422 8.17438C13.0101 8.11638 13.0528 8.03423 13.0612 7.94532C13.0696 7.8564 13.0431 7.76771 12.9872 7.69801C12.9314 7.62832 12.8506 7.58309 12.762 7.57192C12.6734 7.56074 12.5839 7.58448 12.5125 7.63812C11.934 8.09784 11.4666 8.68216 11.1452 9.34756C10.8238 10.013 10.6567 10.7423 10.6563 11.4813V12.9216C9.94145 13.7513 9.38351 14.7041 9.0097 15.7334C9.07579 13.8108 9.39833 11.9057 9.96876 10.0684C9.98186 10.0233 9.98593 9.97602 9.98075 9.9293C9.97557 9.88259 9.96124 9.83735 9.93857 9.79617C9.91591 9.75499 9.88536 9.71869 9.84866 9.68932C9.81196 9.65995 9.76984 9.63809 9.7247 9.625C9.67956 9.61191 9.63228 9.60784 9.58557 9.61302C9.53885 9.6182 9.49361 9.63253 9.45244 9.65519C9.41126 9.67786 9.37495 9.70841 9.34558 9.7451C9.31621 9.7818 9.29436 9.82392 9.28127 9.86906C9.19189 10.1578 9.11627 10.45 9.0372 10.7422C8.71 10.06 8.47865 9.33585 8.3497 8.59031L8.4872 8.53188C9.02579 8.31831 9.48778 7.94784 9.81325 7.46852C10.1387 6.98919 10.3127 6.42313 10.3125 5.84375C10.3125 5.75258 10.2763 5.66515 10.2118 5.60068C10.1474 5.53622 10.0599 5.5 9.96876 5.5C9.8776 5.5 9.79016 5.53622 9.7257 5.60068C9.66123 5.66515 9.62501 5.75258 9.62501 5.84375C9.62621 6.2776 9.4993 6.70214 9.2602 7.06416C9.0211 7.42617 8.68044 7.70954 8.28095 7.87875C8.25002 7.66219 8.25002 7.43875 8.25002 7.21875C8.25002 7.12758 8.2138 7.04015 8.14933 6.97568C8.08487 6.91122 7.99743 6.875 7.90627 6.875C7.8151 6.875 7.72766 6.91122 7.6632 6.97568C7.59873 7.04015 7.56252 7.12758 7.56252 7.21875C7.56418 8.81359 7.9952 10.3786 8.81033 11.7494C8.39726 13.6577 8.23661 15.612 8.33252 17.5622C7.26314 15.6642 6.7019 13.5223 6.70314 11.3438C6.70314 11.2526 6.66693 11.1651 6.60246 11.1007C6.538 11.0362 6.45056 11 6.35939 11C6.26823 11 6.18079 11.0362 6.11633 11.1007C6.05186 11.1651 6.01564 11.2526 6.01564 11.3438C6.01105 14.0993 6.85873 16.7888 8.44252 19.0438V19.1125C8.45265 19.1963 8.49329 19.2735 8.55669 19.3293C8.62009 19.3851 8.70181 19.4156 8.78627 19.415H8.81033C8.89726 19.4089 8.97864 19.37 9.03798 19.3062C9.09733 19.2424 9.13023 19.1584 9.13001 19.0713C9.10345 18.0627 9.2595 17.0577 9.59064 16.1047L10.0203 15.7197C10.9537 14.8918 12.1586 14.4356 13.4063 14.4375C13.4974 14.4375 13.5849 14.4013 13.6493 14.3368C13.7138 14.2724 13.75 14.1849 13.75 14.0938C13.75 14.0026 13.7138 13.9151 13.6493 13.8507C13.5849 13.7862 13.4974 13.75 13.4063 13.75Z" fill="#7AB92D"/>
</svg>
