<svg width="22" height="23" viewBox="0 0 22 23" fill="none" xmlns="http://www.w3.org/2000/svg">
<path d="M12.8936 2.69192H16.1873L16.8034 0.572696C16.8483 0.418181 16.7324 0.263794 16.5715 0.263794H12.4894C12.3276 0.263794 12.2116 0.419771 12.2581 0.574716L12.8936 2.69192Z" fill="#FFBD86"/>
<path d="M12.8933 2.69192H14.2956L13.6601 0.574716C13.6136 0.419771 13.7296 0.263794 13.8914 0.263794H12.4891C12.3273 0.263794 12.2113 0.419771 12.2578 0.574716L12.8933 2.69192Z" fill="#F6A96C"/>
<path d="M16.2744 9.1245C16.5844 8.75913 17.0465 8.52659 17.562 8.52659C18.4932 8.52659 19.2507 9.28413 19.2507 10.2153C19.2507 10.6922 19.0517 11.1232 18.7327 11.4306C19.1147 11.621 19.4759 11.8536 19.8089 12.1241C20.2464 11.6096 20.5109 10.9435 20.5109 10.2153C20.5109 8.58662 19.1906 7.26636 17.562 7.26636C17.1003 7.26636 16.6634 7.37266 16.2744 7.56185V9.1245H16.2744Z" fill="#62DBFB"/>
<path d="M17.2445 10.8838C16.7056 10.7822 16.3174 10.3079 16.3174 9.75945V4.11816H12.823V9.74527C12.823 10.2989 12.4275 10.776 11.8823 10.8722C10.619 11.095 9.4927 11.7284 8.64686 12.628C8.67879 12.9939 8.69542 13.3668 8.69542 13.7432C8.69542 14.6818 8.59792 15.5885 8.40572 16.438L8.39648 16.4789L8.43705 16.4892C8.94984 16.6195 9.42498 16.8925 9.81114 17.2786C10.3368 17.8043 10.6464 18.4827 10.6829 19.1891C10.7192 19.8938 10.4793 20.5419 10.0072 21.0139C9.95372 21.0674 9.89773 21.1179 9.83959 21.1655C10.5424 21.5298 11.3389 21.7361 12.1813 21.7361H16.8791C19.6955 21.7361 21.9999 19.4318 21.9999 16.6153C21.9999 13.7753 19.9425 11.3925 17.2445 10.8838Z" fill="#C8EFFE"/>
<path d="M8.67323 14.5002C8.84064 14.1684 9.04685 13.8544 9.291 13.5669C10.0084 12.7221 10.997 12.1521 12.0746 11.9619L13.1822 11.964C13.2137 11.9579 13.245 11.951 13.2767 11.9454C13.8219 11.8492 14.2174 11.3722 14.2174 10.8185V4.11816H12.823V9.74526C12.823 10.2989 12.4275 10.776 11.8823 10.8722C10.619 11.095 9.49269 11.7284 8.64685 12.628C8.67878 12.9939 8.6954 13.3668 8.6954 13.7432C8.6954 13.9981 8.68758 14.2505 8.67323 14.5002Z" fill="#99E6FC"/>
<path d="M19.7864 13.587C19.0803 12.746 18.1048 12.1722 17.0395 11.9714L12.0746 11.962C10.997 12.1522 10.0084 12.7222 9.29101 13.567C9.0469 13.8546 8.8407 14.1685 8.67325 14.5003C8.63483 15.17 8.54572 15.8193 8.40572 16.4381L8.39648 16.4789L8.43705 16.4892C8.94984 16.6195 9.42498 16.8925 9.81114 17.2787C10.3368 17.8043 10.6464 18.4828 10.6829 19.1892C10.7025 19.57 10.6408 19.9339 10.5061 20.2628C11.0162 20.498 11.5837 20.6295 12.1813 20.6295H16.8791C19.0925 20.6295 20.8933 18.8288 20.8933 16.6153C20.8933 15.5126 20.5002 14.4371 19.7864 13.587Z" fill="#FAC600"/>
<path d="M10.491 16.6154C10.491 15.5031 10.8902 14.4206 11.6149 13.567C12.3275 12.7279 13.3077 12.1603 14.3769 11.9664L12.0746 11.962C10.997 12.1522 10.0084 12.7222 9.29101 13.567C9.0469 13.8546 8.8407 14.1685 8.67325 14.5003C8.63483 15.17 8.54572 15.8193 8.40572 16.4381L8.39648 16.4789L8.43705 16.4892C8.94984 16.6195 9.42498 16.8925 9.81114 17.2787C10.3368 17.8043 10.6464 18.4828 10.6828 19.1892C10.7025 19.57 10.6408 19.9339 10.5061 20.2628C11.0162 20.498 11.5837 20.6295 12.1813 20.6295H14.5053C12.2918 20.6296 10.491 18.8288 10.491 16.6154Z" fill="#E8B800"/>
<path d="M16.6412 4.16117H12.342C11.9665 4.16117 11.6149 3.97722 11.4008 3.66879L10.9427 3.0087C10.8372 2.85677 10.9459 2.64893 11.1309 2.64893H16.6412C17.0588 2.64893 17.3973 2.98748 17.3973 3.40505C17.3973 3.82266 17.0588 4.16117 16.6412 4.16117Z" fill="#99E6FC"/>
<path d="M13.7127 3.66879L13.2545 3.0087C13.149 2.85677 13.2578 2.64893 13.4428 2.64893H11.1309C10.9459 2.64893 10.8372 2.85677 10.9427 3.0087L11.4008 3.66879C11.6149 3.97722 11.9666 4.16117 12.342 4.16117H14.6538C14.2784 4.16117 13.9268 3.97722 13.7127 3.66879Z" fill="#62DBFB"/>
<path d="M6.5877 16.6991C6.93777 16.5064 7.3397 16.4034 7.76371 16.4034C7.99024 16.4034 8.21677 16.4333 8.43815 16.4899C8.63078 15.6545 8.73837 14.724 8.73837 13.7432C8.73837 11.585 8.21811 9.67057 7.41541 8.47656C7.36135 8.39616 7.24207 8.39616 7.18802 8.47656C6.38532 9.67057 5.86505 11.585 5.86505 13.7432C5.86505 14.4952 5.92856 15.2175 6.04483 15.8902C6.24189 16.1581 6.4233 16.4286 6.5877 16.6991Z" fill="#09A76D"/>
<path d="M6.58863 16.6991C6.74813 16.6113 6.91838 16.5422 7.0967 16.4931C6.90355 15.6569 6.79561 14.7254 6.79561 13.7432C6.79561 11.9186 7.16751 10.2684 7.76748 9.08027C7.65778 8.86302 7.54048 8.66111 7.41638 8.47656C7.36233 8.39616 7.24305 8.39616 7.18899 8.47656C6.38629 9.67057 5.86603 11.585 5.86603 13.7432C5.86603 14.4952 5.92954 15.2175 6.04581 15.8902C6.24282 16.1581 6.42423 16.4286 6.58863 16.6991Z" fill="#02905D"/>
<path d="M7.62396 16.4075V12.1459C7.62396 11.9679 7.47967 11.8236 7.3017 11.8236C7.12372 11.8236 6.97943 11.9679 6.97943 12.1459V16.5283C7.18405 16.4605 7.40035 16.4195 7.62396 16.4075Z" fill="#026841"/>
<path d="M3.27846 16.9C3.62092 16.764 3.99905 16.6878 4.39677 16.6878C4.99739 16.6878 5.55366 16.8608 6.00866 17.1534C6.03061 17.1295 6.0527 17.1057 6.07577 17.0826C6.23858 16.9198 6.42373 16.7843 6.62543 16.6782C6.16085 15.9128 5.55409 15.1366 4.8228 14.4053C3.29673 12.8792 1.57518 11.8935 0.163272 11.6167C0.0681825 11.5981 -0.0161652 11.6824 0.00248327 11.7775C0.279202 13.1894 1.26503 14.911 2.79107 16.4371C2.9516 16.5975 3.11428 16.7517 3.27846 16.9Z" fill="#09A76D"/>
<path d="M3.27935 16.9C3.62182 16.764 3.99994 16.6878 4.39766 16.6878C4.47921 16.6878 4.55974 16.6916 4.63953 16.6979C4.27997 16.4098 3.92457 16.0922 3.57915 15.7468C2.31875 14.4864 1.42732 13.0928 0.999132 11.8502C0.711972 11.7476 0.432503 11.6693 0.164249 11.6167C0.0691591 11.5981 -0.0151886 11.6824 0.00345984 11.7775C0.280179 13.1894 1.26601 14.911 2.79205 16.4371C2.95249 16.5975 3.11517 16.7517 3.27935 16.9Z" fill="#02905D"/>
<path d="M4.62716 16.6971C5.12302 16.734 5.58231 16.8881 5.97058 17.1291L2.9054 14.0639C2.77955 13.938 2.57549 13.938 2.44968 14.0639C2.32382 14.1897 2.32382 14.3938 2.44968 14.5196L4.62716 16.6971Z" fill="#026841"/>
<path d="M6.27186 20.8179C5.74622 20.2923 5.43663 19.6138 5.40015 18.9075C5.3647 18.2214 5.59188 17.5895 6.03948 17.1209C5.57662 16.8217 5.00978 16.6449 4.39679 16.6449C2.83775 16.6449 1.57391 17.7846 1.57391 19.1905C1.57391 20.5965 2.83775 21.7362 4.39679 21.7362C5.19313 21.7362 5.91195 21.4384 6.42517 20.96C6.37283 20.9143 6.32136 20.8674 6.27186 20.8179Z" fill="#8BC727"/>
<path d="M2.96387 19.1905C2.96387 18.0009 3.86883 17.0021 5.09176 16.7228C4.8694 16.6721 4.63664 16.6449 4.39679 16.6449C2.83775 16.6449 1.57391 17.7846 1.57391 19.1905C1.57391 20.5965 2.83775 21.7362 4.39679 21.7362C4.63664 21.7362 4.8694 21.709 5.09176 21.6582C3.86883 21.379 2.96387 20.3801 2.96387 19.1905Z" fill="#81B823"/>
<path d="M2.73334 19.8152C2.55536 19.8152 2.41107 19.671 2.41107 19.493V18.8881C2.41107 18.7101 2.55536 18.5658 2.73334 18.5658C2.91131 18.5658 3.0556 18.7101 3.0556 18.8881V19.493C3.0556 19.671 2.91131 19.8152 2.73334 19.8152Z" fill="#BBEC6C"/>
<path d="M10.0344 21.0428C11.0284 20.0489 10.9406 18.3495 9.83841 17.2473C8.73618 16.1451 7.03686 16.0573 6.04287 17.0513C5.04889 18.0453 5.13664 19.7446 6.23888 20.8468C7.34111 21.9491 9.04043 22.0368 10.0344 21.0428Z" fill="#8BC727"/>
<path d="M7.61879 20.8483C6.51638 19.7459 6.4286 18.0463 7.42277 17.0522C7.71831 16.7566 8.07641 16.5575 8.4624 16.4514C7.59477 16.2261 6.6776 16.4201 6.04553 17.0522C5.05141 18.0463 5.13919 19.7459 6.24155 20.8483C7.01624 21.623 8.0856 21.8958 8.99805 21.6451C8.50107 21.516 8.02029 21.2498 7.61879 20.8483Z" fill="#81B823"/>
<path d="M6.65142 18.4082C6.56896 18.4082 6.48646 18.3768 6.42355 18.3138C6.2977 18.188 6.2977 17.9839 6.42355 17.8581L6.85131 17.4303C6.97717 17.3045 7.18122 17.3045 7.30704 17.4303C7.43289 17.5562 7.43289 17.7602 7.30704 17.8861L6.87928 18.3138C6.81638 18.3768 6.73388 18.4082 6.65142 18.4082Z" fill="#BBEC6C"/>
</svg>
